<svg xmlns="http://www.w3.org/2000/svg" width="640" height="300" viewBox="0 0 640 300" fill="none">
        <style>
            
        @keyframes fadeIn {
            0% { opacity: 0; transform: translateY(10px); }
            100% { opacity: 1; transform: translateY(0); }
        }
        @keyframes scaleStreak {
            0% { font-size: 6px; opacity: 0; }
            70% { font-size: 38px; opacity: 1; }
            100% { font-size: 34px; opacity: 1; }
        }
        /* High-performance CSS transform animation scale */
        @keyframes growTrack {
            0% { opacity: 0; transform: scaleX(0); }
            100% { opacity: 1; transform: scaleX(1); }
        }
        .animate-fade {
            opacity: 0;
            animation: fadeIn 0.45s cubic-bezier(0.16, 1, 0.3, 1) forwards;
        }
        .title { font: bold 18px "Segoe UI", Ubuntu, sans-serif; fill: #00ff66; }
        .label { font: 600 15px "Segoe UI", Ubuntu, sans-serif; fill: #8b9b90; }
        .value { font: bold 15px "Segoe UI", Ubuntu, sans-serif; fill: #ffffff; }
        .subtext { font: 400 13px "Segoe UI", Ubuntu, sans-serif; fill: #ffffff; }
    
        </style>
        <rect width="100%" height="100%" rx="12" fill="#0b1f13" stroke="#166534" stroke-width="1" />
        
            <text x="155" y="48" class="title" text-anchor="middle" style="animation: fadeIn 0.4s forwards;">GitHub Stats</text>
            <text x="475" y="48" class="title" text-anchor="middle" style="animation: fadeIn 0.4s forwards;">Top Languages</text>
            
            <line x1="310" y1="36" x2="310" y2="260" stroke="#166534" stroke-opacity="0.4" />
            
            
                <g class="animate-fade" style="animation-delay: 0.40s">
                    <g transform="translate(32, 76)" fill="#00ff66">
                        <path fill-rule="evenodd" d="M2 2.5A2.5 2.5 0 014.5 0h8.75a.75.75 0 01.75.75v12.5a.75.75 0 01-.75.75h-2.5a.75.75 0 110-1.5h1.75v-2h-8a1 1 0 00-.714 1.7.75.75 0 01-1.072 1.05A2.495 2.495 0 012 11.5v-9zm10.5-1V9h-8c-.356 0-.694.074-1 .208V2.5a1 1 0 011-1h8zM5 12.25v3.25a.25.25 0 00.4.2l1.45-1.087a.25.25 0 01.3 0L8.6 15.7a.25.25 0 00.4-.2v-3.25a.25.25 0 00-.25-.25h-3.5a.25.25 0 00-.25.25z"/>
                    </g>
                    <text x="56" y="90" class="label" >Total Repos:</text>
                    <text x="195" y="90" class="value" >50</text>
                </g>
            
                <g class="animate-fade" style="animation-delay: 0.45s">
                    <g transform="translate(32, 108)" fill="#00ff66">
                        <path fill-rule="evenodd" d="M8 .25a.75.75 0 01.673.418l1.882 3.815 4.21.612a.75.75 0 01.416 1.279l-3.046 2.97.719 4.192a.75.75 0 01-1.088.791L8 12.347l-3.766 1.98a.75.75 0 01-1.088-.79l.72-4.194L.818 6.374a.75.75 0 01.416-1.28l4.21-.611L7.327.668A.75.75 0 018 .25zm0 2.445L6.615 5.5a.75.75 0 01-.564.41l-3.097.45 2.24 2.184a.75.75 0 01.216.664l-.528 3.084 2.769-1.456a.75.75 0 01.698 0l2.77 1.456-.53-3.084a.75.75 0 01.216-.664l2.24-2.183-3.096-.45a.75.75 0 01-.564-.41L8 2.694v.001z"/>
                    </g>
                    <text x="56" y="122" class="label" >Total Stars:</text>
                    <text x="195" y="122" class="value" >4</text>
                </g>
            
                <g class="animate-fade" style="animation-delay: 0.50s">
                    <g transform="translate(32, 140)" fill="#00ff66">
                        <path fill-rule="evenodd" d="M10.5 7.75a2.5 2.5 0 11-5 0 2.5 2.5 0 015 0zm1.43.75a4.002 4.002 0 01-7.86 0H.75a.75.75 0 110-1.5h3.32a4.001 4.001 0 017.86 0h3.32a.75.75 0 110 1.5h-3.32z"/>
                    </g>
                    <text x="56" y="154" class="label" >Total Commits:</text>
                    <text x="195" y="154" class="value" >283</text>
                </g>
            
                <g class="animate-fade" style="animation-delay: 0.55s">
                    <g transform="translate(32, 172)" fill="#00ff66">
                        <path fill-rule="evenodd" d="M7.177 3.073L9.573.677A.25.25 0 0110 .854v4.792a.25.25 0 01-.427.177L7.177 3.427a.25.25 0 010-.354zM3.75 2.5a.75.75 0 100 1.5.75.75 0 000-1.5zm-2.25.75a2.25 2.25 0 113 2.122v5.256a2.251 2.251 0 11-1.5 0V5.372A2.25 2.25 0 011.5 3.25zM11 2.5h-1V4h1a1 1 0 011 1v5.628a2.251 2.251 0 101.5 0V5A2.5 2.5 0 0011 2.5zm1 10.25a.75.75 0 111.5 0 .75.75 0 01-1.5 0zM3.75 12a.75.75 0 100 1.5.75.75 0 000-1.5z"/>
                    </g>
                    <text x="56" y="186" class="label" >Total PRs:</text>
                    <text x="195" y="186" class="value" >3</text>
                </g>
            
                <g class="animate-fade" style="animation-delay: 0.60s">
                    <g transform="translate(32, 204)" fill="#00ff66">
                        <path fill-rule="evenodd" d="M8 1.5a6.5 6.5 0 100 13 6.5 6.5 0 000-13zM0 8a8 8 0 1116 0A8 8 0 010 8zm9 3a1 1 0 11-2 0 1 1 0 012 0zm-.25-6.25a.75.75 0 00-1.5 0v3.5a.75.75 0 001.5 0v-3.5z"/>
                    </g>
                    <text x="56" y="218" class="label" >Total Issues:</text>
                    <text x="195" y="218" class="value" >3</text>
                </g>
            
                <g class="animate-fade" style="animation-delay: 0.65s">
                    <g transform="translate(32, 236)" fill="#00ff66">
                        <path fill-rule="evenodd" d="M2 2.5A2.5 2.5 0 014.5 0h8.75a.75.75 0 01.75.75v12.5a.75.75 0 01-.75.75h-2.5a.75.75 0 110-1.5h1.75v-2h-8a1 1 0 00-.714 1.7.75.75 0 01-1.072 1.05A2.495 2.495 0 012 11.5v-9zm10.5-1V9h-8c-.356 0-.694.074-1 .208V2.5a1 1 0 011-1h8zM5 12.25v3.25a.25.25 0 00.4.2l1.45-1.087a.25.25 0 01.3 0L8.6 15.7a.25.25 0 00.4-.2v-3.25a.25.25 0 00-.25-.25h-3.5a.25.25 0 00-.25.25z"/>
                    </g>
                    <text x="56" y="250" class="label" >Contributed to:</text>
                    <text x="195" y="250" class="value" >51</text>
                </g>
            
            
                <g transform="translate(340, 90)">
                    <g class="animate-fade" style="animation-delay: 0.50s">
                        <circle cx="6" cy="-5" r="5" fill="#DA5B0B" />
                        <text x="24" y="0" font-family="'Segoe UI', Ubuntu, sans-serif" font-weight="600" font-size="13px" fill="#ffffff">Jupyter Notebook</text>
                        <text x="264" y="0" font-family="'Segoe UI', Ubuntu, sans-serif" font-size="12px" fill="#8b9b90" text-anchor="end">50.6%</text>
                        
                        
        <rect x="24" y="8" width="240" height="6" rx="3" fill="#1e291e" />
        
        <rect x="24" y="8" width="121.4637383996039" height="6" rx="3" fill="#DA5B0B" style="
            transform-origin: 24px 8px;
            animation: growTrack 0.65s cubic-bezier(0.16, 1, 0.3, 1) forwards;
            animation-delay: 0.5s;
            opacity: 0;
        " />
    
                    </g>
                </g>
            
                <g transform="translate(340, 122)">
                    <g class="animate-fade" style="animation-delay: 0.56s">
                        <circle cx="6" cy="-5" r="5" fill="#f1e05a" />
                        <text x="24" y="0" font-family="'Segoe UI', Ubuntu, sans-serif" font-weight="600" font-size="13px" fill="#ffffff">JavaScript</text>
                        <text x="264" y="0" font-family="'Segoe UI', Ubuntu, sans-serif" font-size="12px" fill="#8b9b90" text-anchor="end">21.8%</text>
                        
                        
        <rect x="24" y="8" width="240" height="6" rx="3" fill="#1e291e" />
        
        <rect x="24" y="8" width="52.28157430716965" height="6" rx="3" fill="#f1e05a" style="
            transform-origin: 24px 8px;
            animation: growTrack 0.65s cubic-bezier(0.16, 1, 0.3, 1) forwards;
            animation-delay: 0.56s;
            opacity: 0;
        " />
    
                    </g>
                </g>
            
                <g transform="translate(340, 154)">
                    <g class="animate-fade" style="animation-delay: 0.62s">
                        <circle cx="6" cy="-5" r="5" fill="#3572A5" />
                        <text x="24" y="0" font-family="'Segoe UI', Ubuntu, sans-serif" font-weight="600" font-size="13px" fill="#ffffff">Python</text>
                        <text x="264" y="0" font-family="'Segoe UI', Ubuntu, sans-serif" font-size="12px" fill="#8b9b90" text-anchor="end">9.9%</text>
                        
                        
        <rect x="24" y="8" width="240" height="6" rx="3" fill="#1e291e" />
        
        <rect x="24" y="8" width="23.77408409051311" height="6" rx="3" fill="#3572A5" style="
            transform-origin: 24px 8px;
            animation: growTrack 0.65s cubic-bezier(0.16, 1, 0.3, 1) forwards;
            animation-delay: 0.62s;
            opacity: 0;
        " />
    
                    </g>
                </g>
            
                <g transform="translate(340, 186)">
                    <g class="animate-fade" style="animation-delay: 0.68s">
                        <circle cx="6" cy="-5" r="5" fill="#3178c6" />
                        <text x="24" y="0" font-family="'Segoe UI', Ubuntu, sans-serif" font-weight="600" font-size="13px" fill="#ffffff">TypeScript</text>
                        <text x="264" y="0" font-family="'Segoe UI', Ubuntu, sans-serif" font-size="12px" fill="#8b9b90" text-anchor="end">6.2%</text>
                        
                        
        <rect x="24" y="8" width="240" height="6" rx="3" fill="#1e291e" />
        
        <rect x="24" y="8" width="14.79152626289309" height="6" rx="3" fill="#3178c6" style="
            transform-origin: 24px 8px;
            animation: growTrack 0.65s cubic-bezier(0.16, 1, 0.3, 1) forwards;
            animation-delay: 0.68s;
            opacity: 0;
        " />
    
                    </g>
                </g>
            
                <g transform="translate(340, 218)">
                    <g class="animate-fade" style="animation-delay: 0.74s">
                        <circle cx="6" cy="-5" r="5" fill="#663399" />
                        <text x="24" y="0" font-family="'Segoe UI', Ubuntu, sans-serif" font-weight="600" font-size="13px" fill="#ffffff">CSS</text>
                        <text x="264" y="0" font-family="'Segoe UI', Ubuntu, sans-serif" font-size="12px" fill="#8b9b90" text-anchor="end">3.4%</text>
                        
                        
        <rect x="24" y="8" width="240" height="6" rx="3" fill="#1e291e" />
        
        <rect x="24" y="8" width="8.214912170893129" height="6" rx="3" fill="#663399" style="
            transform-origin: 24px 8px;
            animation: growTrack 0.65s cubic-bezier(0.16, 1, 0.3, 1) forwards;
            animation-delay: 0.74s;
            opacity: 0;
        " />
    
                    </g>
                </g>
            
        
    </svg>